<svg width="122" height="37" viewBox="0 0 122 37" fill="none" xmlns="http://www.w3.org/2000/svg">
<g opacity="0.8">
<path d="M28.8144 25.235C29.2619 25.235 29.4856 25.7421 29.4856 26.7562C29.4856 28.8741 28.5012 30.9322 26.5325 32.9308C24.5638 34.8994 22.1626 35.8987 19.3289 35.9285C17.3304 35.9285 15.0187 35.1381 12.3938 33.5572C10.5146 35.5557 8.17303 36.5549 5.36915 36.5549C3.51977 36.5549 2.16257 36.0926 1.29754 35.1679C0.432515 34.2432 0 33.0203 0 31.499C0 29.9777 0.551829 28.8442 1.65549 28.0985C2.78897 27.323 4.22075 26.9352 5.9508 26.9352C6.87549 26.9352 7.74052 26.98 8.54589 27.0694C8.54589 23.4304 8.94858 19.8808 9.75395 16.4206C8.76961 15.9136 7.91949 15.3468 7.2036 14.7204C6.51755 14.094 6.17452 13.6018 6.17452 13.2439C6.17452 12.2894 6.38332 11.8121 6.80092 11.8121C7.39749 11.8121 8.00898 11.9911 8.63538 12.349C9.29161 12.6772 9.99258 12.9307 10.7383 13.1097C12.5877 7.77035 15.1231 4.32515 18.3446 2.77406C19.4781 2.23715 20.6712 1.96869 21.924 1.96869C26.6369 1.96869 28.9934 3.95229 28.9934 7.91949C28.9934 10.1865 28.1433 12.1402 26.443 13.7808C24.0866 16.0478 20.5072 17.2409 15.7048 17.3602C15.3766 19.8658 15.2126 22.8338 15.2126 26.2641C15.2126 27.0993 15.1082 28.0389 14.8994 29.0829C15.9434 29.6198 16.9576 30.112 17.9419 30.5594C18.9262 31.0068 20.1343 31.2305 21.5661 31.2305C22.3118 31.2305 23.0426 30.9173 23.7585 30.2909C24.5042 29.6645 25.1902 28.9785 25.8166 28.2328C26.4729 27.487 27.0545 26.801 27.5616 26.1746C28.0687 25.5482 28.4863 25.235 28.8144 25.235ZM21.8345 6.35349C19.3289 6.35349 17.5094 8.73978 16.3759 13.5124C18.5236 13.3334 20.3282 12.7368 21.7898 11.7226C23.2812 10.6786 24.0269 9.63464 24.0269 8.59064C24.0269 7.09921 23.2961 6.35349 21.8345 6.35349ZM4.34006 31.8122C4.36989 32.6474 4.95155 33.065 6.08503 33.065C7.21852 33.065 7.93441 32.4088 8.23269 31.0963C7.39749 30.6787 6.71143 30.4699 6.17452 30.4699C4.98137 30.4699 4.36989 30.9173 4.34006 31.8122Z" fill="white"/>
<path d="M41.2886 16.9128C41.2886 14.9143 42.8397 13.915 45.9419 13.915C46.7174 13.915 47.1947 14.1686 47.3736 14.6757C47.5824 15.1828 47.6868 15.9583 47.6868 17.0023C47.6868 18.4639 47.3587 20.7309 46.7025 23.8032C46.0463 26.8756 45.7331 28.9486 45.7629 30.0225C45.7629 30.5296 45.9269 30.7831 46.2551 30.7831C46.7025 30.7831 47.2543 30.4997 47.9105 29.933C48.5668 29.3662 49.223 28.7548 49.8792 28.0985C50.5355 27.4125 51.132 26.7861 51.6689 26.2193C52.2357 25.6526 52.6235 25.3692 52.8323 25.3692C53.2499 25.3692 53.4587 25.8763 53.4587 26.8905C53.4587 28.9785 52.4296 30.9919 50.3714 32.9308C46.9113 34.9591 44.7189 35.9733 43.7942 35.9733C43.7047 35.9733 43.6301 35.9584 43.5705 35.9285C42.437 35.9285 41.6316 35.5557 41.1544 34.81C40.7069 34.0643 40.4236 33.1246 40.3043 31.9912C39.7077 33.0948 38.8874 34.0493 37.8434 34.8547C36.7994 35.6302 35.6063 36.018 34.264 36.018C31.9075 36.018 30.088 35.5706 28.8053 34.6757C27.5525 33.7809 26.9261 32.4535 26.9261 30.6936C26.9261 29.9181 27.0305 29.2022 27.2393 28.546C27.478 27.8897 27.8508 27.0844 28.3579 26.1298L29.6554 15.1231C30.5801 14.4072 31.9075 14.0493 33.6376 14.0493C35.0097 14.0493 35.7852 14.9441 35.9642 16.7338C36.1133 18.1954 36.0388 19.5079 35.7405 20.6712C35.472 21.8047 35.0992 23.2514 34.6219 25.0113C34.1446 26.7413 33.906 28.2775 33.906 29.6198C33.906 30.6936 34.5772 31.2305 35.9194 31.2305C37.381 31.2305 38.6488 29.9479 39.7226 27.3826C40.5578 25.414 41.1245 23.2216 41.4228 20.8054C41.393 20.5668 41.3632 20.2685 41.3333 19.9106C41.3333 19.5228 41.3184 19.15 41.2886 18.792C41.2886 18.4341 41.2886 18.0761 41.2886 17.7182V16.9128Z" fill="white"/>
<path d="M68.9935 25.235C69.5304 25.235 69.7989 25.6973 69.7989 26.622C69.7989 27.5169 69.5603 28.4863 69.083 29.5303C68.6356 30.5743 67.9346 31.5885 66.9801 32.5728C66.0554 33.5273 64.8623 34.3476 63.4007 35.0337C61.9391 35.7197 60.209 36.0628 58.2105 36.0628C56.2418 36.0628 54.5118 35.4811 53.0203 34.3178C51.5289 33.1246 50.7832 31.4244 50.7832 29.2171C50.7832 26.98 51.1262 24.9665 51.8123 23.1768C52.5281 21.3573 53.4528 19.7913 54.5863 18.4788C55.7496 17.1664 57.0621 16.1522 58.5237 15.4363C59.9853 14.6906 61.3723 14.3177 62.6848 14.3177C64.9816 14.3177 66.13 15.2275 66.13 17.047C66.13 18.091 65.9063 18.9262 65.4588 19.5526C65.0412 20.179 64.6087 20.4922 64.1613 20.4922C63.5647 20.4922 63.0427 20.2834 62.5953 19.8658C62.1479 19.4482 61.6557 19.2394 61.1188 19.2394C60.5819 19.2096 60.0599 19.4632 59.5528 20.0001C59.0755 20.537 58.6728 21.223 58.3447 22.0582C57.6885 23.7286 57.3604 25.6824 57.3604 27.9196C57.3902 28.9934 57.8824 29.7988 58.8369 30.3357C59.4931 30.6936 60.2687 30.8875 61.1635 30.9173C62.0584 30.9173 62.9085 30.619 63.7139 30.0225C64.5491 29.4259 65.3097 28.7846 65.9958 28.0985C66.6818 27.3826 67.2784 26.7264 67.7855 26.1298C68.3224 25.5333 68.7251 25.235 68.9935 25.235Z" fill="white"/>
<path d="M72.9414 35.9285C69.9585 35.9285 68.4671 33.1396 68.4671 27.5616C68.4671 24.5191 68.84 21.76 69.5857 19.2842C70.749 15.4661 72.0614 13.5571 73.523 13.5571C74.3881 13.5571 75.0741 14.1388 75.5812 15.3021C75.9988 16.1969 76.1927 17.0769 76.1629 17.9419C76.1629 19.135 75.8049 21.238 75.0891 24.2506C74.403 26.8756 74.06 28.5012 74.06 29.1276C74.06 29.754 74.2091 30.1865 74.5074 30.4252C74.8355 30.6638 75.2084 30.7831 75.626 30.7831C76.0734 30.7831 76.6252 30.4997 77.2815 29.933C77.9377 29.3662 78.5939 28.7548 79.2501 28.0985C79.9064 27.4125 80.5029 26.7861 81.0399 26.2193C81.6066 25.6526 81.9944 25.3692 82.2032 25.3692C82.6208 25.3692 82.8296 25.8763 82.8296 26.8905C82.8296 28.9785 81.7707 31.0217 79.6528 33.0202C77.5648 34.9889 75.3277 35.9584 72.9414 35.9285Z" fill="white"/>
<path d="M94.5082 16.9128C94.5082 14.9143 96.0592 13.915 99.1614 13.915C99.937 13.915 100.414 14.1686 100.593 14.6757C100.802 15.1828 100.906 15.9583 100.906 17.0023C100.906 18.4639 100.578 20.7309 99.9221 23.8032C99.2658 26.8756 98.9526 28.9486 98.9824 30.0225C98.9824 30.5296 99.1465 30.7831 99.4746 30.7831C99.9221 30.7831 100.474 30.4997 101.13 29.933C101.786 29.3662 102.443 28.7548 103.099 28.0985C103.755 27.4125 104.352 26.7861 104.889 26.2193C105.455 25.6526 105.843 25.3692 106.052 25.3692C106.469 25.3692 106.678 25.8763 106.678 26.8905C106.678 28.9785 105.649 30.9919 103.591 32.9308C100.131 34.9591 97.9384 35.9733 97.0138 35.9733C96.9243 35.9733 96.8497 35.9584 96.79 35.9285C95.6566 35.9285 94.8512 35.5557 94.3739 34.81C93.9265 34.0643 93.6431 33.1246 93.5238 31.9912C92.9272 33.0948 92.107 34.0493 91.063 34.8547C90.019 35.6302 88.8258 36.018 87.4835 36.018C85.1271 36.018 83.3075 35.5706 82.0249 34.6757C80.7721 33.7809 80.1457 32.4535 80.1457 30.6936C80.1457 29.9181 80.2501 29.2022 80.4589 28.546C80.6975 27.8897 81.0704 27.0844 81.5775 26.1298L82.875 15.1231C83.7997 14.4072 85.1271 14.0493 86.8571 14.0493C88.2292 14.0493 89.0048 14.9441 89.1838 16.7338C89.3329 18.1954 89.2583 19.5079 88.96 20.6712C88.6916 21.8047 88.3187 23.2514 87.8415 25.0113C87.3642 26.7413 87.1256 28.2775 87.1256 29.6198C87.1256 30.6936 87.7967 31.2305 89.139 31.2305C90.6006 31.2305 91.8683 29.9479 92.9421 27.3826C93.7774 25.414 94.3441 23.2216 94.6424 20.8054C94.6126 20.5668 94.5827 20.2685 94.5529 19.9106C94.5529 19.5228 94.538 19.15 94.5082 18.792C94.5082 18.4341 94.5082 18.0761 94.5082 17.7182V16.9128Z" fill="white"/>
<path d="M114.652 14.1388C116.65 14.1089 118.141 14.4818 119.126 15.2573C120.11 16.003 120.602 17.0918 120.602 18.5236C120.602 19.9255 120.17 21.1336 119.305 22.1477C118.47 23.1321 117.441 23.833 116.218 24.2506C117.083 25.1455 117.858 26.0553 118.544 26.98C119.26 27.9046 119.618 28.8741 119.618 29.8882C119.618 31.8868 118.828 33.4378 117.247 34.5415C115.666 35.6153 113.458 36.1523 110.625 36.1523C107.821 36.1523 105.718 35.6004 104.316 34.4968C102.914 33.3633 102.213 32.0956 102.213 30.6936C102.213 29.2618 102.556 27.9643 103.242 26.801C103.958 25.6377 104.719 25.056 105.524 25.056C106.001 25.056 106.344 25.235 106.553 25.5929C106.762 25.921 107.15 26.9054 107.716 28.546C107.925 29.1425 108.268 29.7093 108.745 30.2462C109.849 31.4692 111.594 32.0806 113.98 32.0806C113.622 30.9472 113.041 29.9777 112.235 29.1724C111.46 28.3372 110.684 27.5318 109.909 26.7562C109.133 25.9807 108.447 25.1604 107.851 24.2954C107.254 23.4005 106.956 22.3565 106.956 21.1634C106.956 19.0157 107.761 17.2708 109.372 15.9285C110.893 14.7353 112.653 14.1388 114.652 14.1388ZM114.473 22.4162C115.666 21.1336 116.262 20.1045 116.262 19.3289C116.262 18.971 116.128 18.6578 115.86 18.3893C115.621 18.091 115.263 17.9419 114.786 17.9419C114.309 17.9419 113.846 18.0016 113.399 18.1209C112.981 18.2402 112.638 18.3297 112.37 18.3893C112.37 19.5228 113.071 20.8651 114.473 22.4162Z" fill="white"/>
<path d="M6.33615 11.4598C9.90317 12.774 11.5772 13.1025 11.9683 13.1025C13.6892 15.5275 15.6761 19.5795 9.85624 16.3879C2.5814 12.3985 1.87738 9.81712 6.33615 11.4598Z" fill="white"/>
<path d="M77.4156 3.61225C77.7078 3.04812 78.0243 3.25967 78.1461 3.43596C79.9723 6.08033 79.4244 9.07727 78.1461 10.4876C76.8677 11.8979 75.2241 11.8979 74.1284 11.3691C73.0327 10.8402 72.4848 10.4876 71.9369 9.25356C71.3891 8.01953 72.6674 5.90403 74.6763 5.37516C76.6851 4.84629 77.0503 4.31742 77.4156 3.61225Z" fill="white"/>
</g>
</svg>
